<?xml version="1.0" encoding="UTF-8"?>
<svg width="112px" height="40px" viewBox="0 0 112 40" version="1.1" xmlns="http://www.w3.org/2000/svg" xmlns:xlink="http://www.w3.org/1999/xlink">
    <!-- Generator: Sketch 61 (89581) - https://sketch.com -->
    <title>figure</title>
    <desc>Created with Sketch.</desc>
    <g id="en" stroke="none" stroke-width="1" fill="none" fill-rule="evenodd">
        <g id="X2D-webpage_en" transform="translate(-770.000000, -1922.000000)">
            <g id="Section-1---首屏">
                <g id="div">
                    <g transform="translate(680.000000, 320.000000)" id="ul">
                        <g transform="translate(0.000000, 1602.000000)">
                            <g id="li">
                                <g id="figure" transform="translate(1.000000, 0.000000)">
                                    <rect id="div" x="0" y="0" width="287" height="40"></rect>
                                    <g id="img" transform="translate(89.000000, 0.000000)" fill="#FFFFFF" fill-rule="nonzero">
                                        <g id="100">
                                            <polygon id="1" points="1.70588235 1.38235294 11.4411765 1.38235294 11.4411765 38.7352941 6.38235294 38.7352941 6.38235294 6.32352941 0 6.32352941"></polygon>
                                            <path d="M34.6764706,0 C38.7941176,0 42.1421569,1.84803922 44.7205882,5.54411765 C47.2990196,9.24019608 48.5882353,14.0392157 48.5882353,19.9411765 C48.5882353,26.0588235 47.2009804,30.9313725 44.4264706,34.5588235 C41.6519608,38.1862745 38.3235294,40 34.4411765,40 C30.4019608,40 27.0441176,38.1421569 24.3676471,34.4264706 C21.6911765,30.7107843 20.3529412,25.9803922 20.3529412,20.2352941 C20.3529412,13.8627451 21.7303922,8.89705882 24.4852941,5.33823529 C27.2401961,1.77941176 30.5392157,0 34.3823529,0 L34.6764706,0 Z M43.2352941,19.8823529 C43.2352941,15.6470588 42.4019608,12.1666667 40.7352941,9.44117647 C39.0686275,6.71568627 36.9705882,5.35294118 34.4411765,5.35294118 C31.8333333,5.35294118 29.7058824,6.70098039 28.0588235,9.39705882 C26.4117647,12.0931373 25.5882353,15.6470588 25.5882353,20.0588235 C25.5882353,24.4313725 26.4215686,27.9460784 28.0882353,30.6029412 C29.754902,33.2598039 31.9117647,34.5882353 34.5588235,34.5882353 C37.1078431,34.5882353 39.1911765,33.2303922 40.8088235,30.5147059 C42.4264706,27.7990196 43.2352941,24.254902 43.2352941,19.8823529 Z" id="0"></path>
                                            <path d="M68.8529412,0 C72.9705882,0 76.3186275,1.84803922 78.8970588,5.54411765 C81.4754902,9.24019608 82.7647059,14.0392157 82.7647059,19.9411765 C82.7647059,26.0588235 81.377451,30.9313725 78.6029412,34.5588235 C75.8284314,38.1862745 72.5,40 68.6176471,40 C64.5784314,40 61.2205882,38.1421569 58.5441176,34.4264706 C55.8676471,30.7107843 54.5294118,25.9803922 54.5294118,20.2352941 C54.5294118,13.8627451 55.9068627,8.89705882 58.6617647,5.33823529 C61.4166667,1.77941176 64.7156863,0 68.5588235,0 L68.8529412,0 Z M77.4117647,19.8823529 C77.4117647,15.6470588 76.5784314,12.1666667 74.9117647,9.44117647 C73.245098,6.71568627 71.1470588,5.35294118 68.6176471,5.35294118 C66.0098039,5.35294118 63.8823529,6.70098039 62.2352941,9.39705882 C60.5882353,12.0931373 59.7647059,15.6470588 59.7647059,20.0588235 C59.7647059,24.4313725 60.5980392,27.9460784 62.2647059,30.6029412 C63.9313725,33.2598039 66.0882353,34.5882353 68.7352941,34.5882353 C71.2843137,34.5882353 73.3676471,33.2303922 74.9852941,30.5147059 C76.6029412,27.7990196 77.4117647,24.254902 77.4117647,19.8823529 Z" id="0"></path>
                                        </g>
                                        <g id="MP" transform="translate(87.553309, 26.538603)">
                                            <polygon id="M" points="10.5055147 0 13.7040441 12.1966912 12.1415441 12.1966912 10.2022059 4.74264706 6.86580882 12.6470588 3.52022059 4.6875 1.5625 12.1966912 0 12.1966912 3.19852941 0 6.86580882 8.73161765"></polygon>
                                            <path d="M17.5,0.487132353 L19.8529412,0.487132353 C21.182598,0.487132353 22.254902,0.799632353 23.0698529,1.42463235 C23.8848039,2.04963235 24.2922794,2.86151961 24.2922794,3.86029412 C24.2922794,4.86519608 23.861826,5.70772059 23.0009191,6.38786765 C22.1400123,7.06801471 20.8333333,7.39889706 19.0808824,7.38051471 L19.0808824,12.1966912 L17.5,12.1966912 L17.5,0.487132353 Z M19.0808824,1.88419118 L19.0808824,5.98345588 C20.2818627,5.97120098 21.171875,5.80116422 21.7509191,5.47334559 C22.3299632,5.14552696 22.6194853,4.62009804 22.6194853,3.89705882 C22.6194853,3.35171569 22.4004289,2.87990196 21.9623162,2.48161765 C21.5242034,2.08333333 20.5637255,1.88419118 19.0808824,1.88419118 Z" id="P"></path>
                                        </g>
                                    </g>
                                </g>
                            </g>
                        </g>
                    </g>
                </g>
            </g>
        </g>
    </g>
</svg>