<?xml version="1.0" encoding="UTF-8"?>
<svg width="40px" height="40px" viewBox="0 0 40 40" version="1.1" xmlns="http://www.w3.org/2000/svg" xmlns:xlink="http://www.w3.org/1999/xlink">
    <!-- Generator: Sketch 61 (89581) - https://sketch.com -->
    <title>figure</title>
    <desc>Created with Sketch.</desc>
    <g id="en" stroke="none" stroke-width="1" fill="none" fill-rule="evenodd">
        <g id="X2D-webpage_en" transform="translate(-1715.000000, -1922.000000)">
            <g id="Section-1---首屏">
                <g id="div">
                    <g transform="translate(680.000000, 320.000000)" id="ul">
                        <g transform="translate(0.000000, 1602.000000)">
                            <g id="li" transform="translate(911.000000, 0.000000)">
                                <g id="figure">
                                    <rect id="div" x="0" y="0" width="287" height="40"></rect>
                                    <g id="img" transform="translate(124.000000, 0.000000)" fill="#FFFFFF" fill-rule="nonzero">
                                        <g id="1">
                                            <polygon points="1.82677165 0 12.2519685 0 12.2519685 40 6.83464567 40 6.83464567 5.29133858 0 5.29133858"></polygon>
                                        </g>
                                        <g id="TB" transform="translate(20.698819, 27.460630)">
                                            <polygon id="T" points="0 0 7.66732283 0 7.66732283 1.71259843 4.67519685 1.71259843 4.67519685 12.5393701 2.98228346 12.5393701 2.98228346 1.71259843 0 1.71259843"></polygon>
                                            <path d="M11.7322835,0 L13.7204724,0 C15.0262467,0 16.0925197,0.283792651 16.9192913,0.851377953 C17.746063,1.41896325 18.1594488,2.13582677 18.1594488,3.0019685 C18.1594488,4.05839895 17.5492126,4.94094488 16.3287402,5.6496063 C18.2185039,6.27952756 19.1633858,7.37204724 19.1633858,8.92716535 C19.1633858,10.0098425 18.6761811,10.8825459 17.7017717,11.5452756 C16.7273622,12.2080052 15.4232283,12.5393701 13.7893701,12.5393701 L11.7322835,12.5393701 L11.7322835,0 Z M13.4251969,1.51574803 L13.4251969,5.22637795 C14.3700787,5.21325459 15.0935039,5.0328084 15.5954724,4.68503937 C16.0974409,4.33727034 16.3484252,3.85826772 16.3484252,3.2480315 C16.3484252,2.71653543 16.1220472,2.29166667 15.6692913,1.9734252 C15.2165354,1.65518373 14.6095801,1.49606299 13.8484252,1.49606299 C13.6843832,1.49606299 13.5433071,1.50262467 13.4251969,1.51574803 Z M13.4251969,6.71259843 L13.4251969,11.003937 L13.5629921,11.003937 C15.0393701,11.003937 16.0465879,10.7677165 16.5846457,10.2952756 C17.1227034,9.82283465 17.3917323,9.34055118 17.3917323,8.8484252 C17.3917323,8.1988189 17.089895,7.68044619 16.4862205,7.29330709 C15.8825459,6.90616798 15.0557743,6.71259843 14.0059055,6.71259843 L13.4251969,6.71259843 Z" id="B"></path>
                                        </g>
                                    </g>
                                </g>
                            </g>
                        </g>
                    </g>
                </g>
            </g>
        </g>
    </g>
</svg>