<?xml version="1.0" encoding="UTF-8"?>
<svg width="123px" height="40px" viewBox="0 0 123 40" version="1.1" xmlns="http://www.w3.org/2000/svg" xmlns:xlink="http://www.w3.org/1999/xlink">
    <title>编组 11</title>
    <g id="en" stroke="none" stroke-width="1" fill="none" fill-rule="evenodd">
        <g id="Section-6---操控备份-4" transform="translate(-932.000000, -509.000000)" fill="#000000" fill-rule="nonzero">
            <g id="编组-8" transform="translate(680.000000, 0.000000)">
                <g id="编组-11" transform="translate(252.000000, 509.000000)">
                    <polygon id="路径" points="119.965795 27 123 38.5726744 121.517773 38.5726744 119.678068 31.5 116.513078 39 113.33937 31.4476744 111.482227 38.5726744 110 38.5726744 113.034205 27 116.513078 35.2848837"></polygon>
                    <g id="2.36">
                        <path d="M11.1486486,33.8528139 L25.1930502,33.8528139 L25.1930502,38.7590188 L0,38.7590188 L18.7934363,18.8455988 C20.2027027,17.3063973 20.9073359,15.6132756 20.9073359,13.7662338 C20.9073359,11.5921116 20.1640927,9.70658971 18.6776062,8.10966811 C17.1911197,6.51274651 15.4440154,5.71428571 13.4362934,5.71428571 C11.7760618,5.71428571 10.2171815,6.24338624 8.75965251,7.3015873 C7.30212355,8.35978836 6.35135135,9.99519 5.90733591,12.2077922 L1.04247104,12.2077922 C1.52509653,8.59066859 2.95849421,5.77681578 5.34266409,3.76623377 C7.72683398,1.75565176 10.530888,0.75036075 13.7548263,0.75036075 C16.9787645,0.75036075 19.7876448,2.01539202 22.1814672,4.54545455 C24.5752896,7.07551708 25.7722008,10.0721501 25.7722008,13.5353535 C25.7722008,15.2092352 25.4681467,16.7436267 24.8600386,18.1385281 C24.2519305,19.5334295 23.1756757,21.048581 21.6312741,22.6839827 L11.1486486,33.8528139 Z" id="路径"></path>
                        <path d="M32.0559846,35.3823954 C32.0559846,34.3241943 32.4372587,33.4102934 33.1998069,32.6406926 C33.9623552,31.8710919 34.8841699,31.4862915 35.965251,31.4862915 C37.027027,31.4862915 37.9440154,31.8710919 38.7162162,32.6406926 C39.488417,33.4102934 39.8745174,34.3241943 39.8745174,35.3823954 C39.8745174,36.4598365 39.4932432,37.3785474 38.730695,38.1385281 C37.9681467,38.8985089 37.046332,39.2784993 35.965251,39.2784993 C34.8841699,39.2784993 33.9623552,38.9033189 33.1998069,38.1529582 C32.4372587,37.4025974 32.0559846,36.4790765 32.0559846,35.3823954 Z" id="路径"></path>
                        <path d="M52.5868726,10.2741703 L47.2007722,10.2741703 C47.5482625,7.17652718 48.769305,4.81481481 50.8638996,3.18903319 C52.9584942,1.56325156 55.492278,0.75036075 58.465251,0.75036075 C61.8822394,0.75036075 64.7104247,1.72198172 66.9498069,3.66522367 C69.1891892,5.60846561 70.3088803,8.04232804 70.3088803,10.966811 C70.3088803,14.6031746 68.4555985,17.3833574 64.7490347,19.3073593 C69.0926641,21.5392015 71.2644788,24.6176046 71.2644788,28.5425685 C71.2644788,31.6209716 70.0820463,34.2905243 67.7171815,36.5512266 C65.3523166,38.8119288 62.5482625,39.9422799 59.3050193,39.9422799 C56.042471,39.9422799 53.219112,39.1293891 50.8349421,37.5036075 C48.4507722,35.8778259 46.8822394,33.3044733 46.1293436,29.7835498 L51.6312741,29.7835498 C52.8281853,33.5930736 55.2799228,35.4978355 58.9864865,35.4978355 C60.8783784,35.4978355 62.5289575,34.8484848 63.9382239,33.5497835 C65.3474903,32.2510823 66.0521236,30.7359307 66.0521236,29.004329 C66.0521236,27.1957672 65.4054054,25.5363155 64.1119691,24.025974 C62.8185328,22.5156325 60.6949807,21.7316017 57.7413127,21.6738817 L57.7413127,17.1139971 C60,17.0755171 61.7712355,16.5223665 63.0550193,15.4545455 C64.3388031,14.3867244 64.980695,13.015873 64.980695,11.3419913 C64.980695,9.62962963 64.3822394,8.17700818 63.1853282,6.98412698 C61.988417,5.79124579 60.530888,5.19480519 58.8127413,5.19480519 C57.1911197,5.19480519 55.8976834,5.5988456 54.9324324,6.40692641 C53.9671815,7.21500722 53.1853282,8.5040885 52.5868726,10.2741703 Z" id="路径"></path>
                        <path d="M93.7934363,0 L97.6447876,2.65512266 L89.5366795,14.4588745 C90.2123552,14.3819144 90.6853282,14.3434343 90.9555985,14.3434343 L92.027027,14.2857143 C95.4633205,14.2857143 98.484556,15.5074555 101.090734,17.950938 C103.696911,20.3944204 105,23.2130832 105,26.4069264 C105,30.1972102 103.706564,33.4102934 101.119691,36.046176 C98.5328185,38.6820587 95.3764479,40 91.6505792,40 C87.9247104,40 84.7393822,38.7061087 82.0945946,36.1183261 C79.4498069,33.5305435 78.1274131,30.4088504 78.1274131,26.7532468 C78.1274131,23.9442039 78.957529,21.3468013 80.6177606,18.961039 L93.7934363,0 Z M99.7297297,26.5800866 C99.7297297,24.3482443 98.9237452,22.4194324 97.3117761,20.7936508 C95.6998069,19.1678692 93.7934363,18.3549784 91.5926641,18.3549784 C89.3918919,18.3549784 87.4710425,19.1774892 85.8301158,20.8225108 C84.1891892,22.4675325 83.3687259,24.3867244 83.3687259,26.5800866 C83.3687259,28.8504089 84.1650579,30.7696008 85.757722,32.3376623 C87.3503861,33.9057239 89.2953668,34.6897547 91.5926641,34.6897547 C93.8513514,34.6897547 95.7722008,33.9009139 97.3552124,32.3232323 C98.9382239,30.7455507 99.7297297,28.8311688 99.7297297,26.5800866 Z" id="形状"></path>
                    </g>
                </g>
            </g>
        </g>
    </g>
</svg>