<?xml version="1.0" encoding="UTF-8"?>
<svg width="85px" height="40px" viewBox="0 0 85 40" version="1.1" xmlns="http://www.w3.org/2000/svg" xmlns:xlink="http://www.w3.org/1999/xlink">
    <title>编组</title>
    <g id="en" stroke="none" stroke-width="1" fill="none" fill-rule="evenodd">
        <g id="Section-6---操控备份-4" transform="translate(-680.000000, -509.000000)" fill="#000000" fill-rule="nonzero">
            <g id="编组-8" transform="translate(680.000000, 0.000000)">
                <g id="li" transform="translate(0.000000, 509.000000)">
                    <g id="编组" transform="translate(0.000000, 0.000000)">
                        <g id="”备份" transform="translate(77.000000, 0.000000)">
                            <path d="M5.06578947,0 L8,0 L8,2.64950495 C8,3.84554455 7.4254386,4.95445545 6.27631579,5.97623762 L5.23684211,5.08514851 C6.05263158,4.33267327 6.49122807,3.53663366 6.55263158,2.6970297 L5.06578947,2.6970297 L5.06578947,0 Z M0,0 L2.96052632,0 L2.96052632,2.42376238 C2.96052632,3.69108911 2.35964912,4.88316832 1.15789474,6 L0.105263158,5.06138614 C0.929824561,4.3960396 1.38157895,3.60792079 1.46052632,2.6970297 L0,2.6970297 L0,0 Z" id="形状"></path>
                        </g>
                        <g id="3.6’">
                            <path d="M6.43696085,10.2741703 L1.06801593,10.2741703 C1.41439947,7.17652718 2.63155275,4.81481481 4.71947578,3.18903319 C6.80739881,1.56325156 9.33311214,0.75036075 12.2966158,0.75036075 C15.7027206,0.75036075 18.5218978,1.72198172 20.7541473,3.66522367 C22.9863968,5.60846561 24.1025216,8.04232804 24.1025216,10.966811 C24.1025216,14.6031746 22.2551427,17.3833574 18.5603849,19.3073593 C22.8901792,21.5392015 25.0550763,24.6176046 25.0550763,28.5425685 C25.0550763,31.6209716 23.8764101,34.2905243 21.5190776,36.5512266 C19.1617452,38.8119288 16.3666224,39.9422799 13.1337094,39.9422799 C9.88155275,39.9422799 7.06718646,39.1293891 4.69061048,37.5036075 C2.31403451,35.8778259 0.750497678,33.3044733 0,29.7835498 L5.4844061,29.7835498 C6.67750498,33.5930736 9.12143331,35.4978355 12.8161911,35.4978355 C14.7020571,35.4978355 16.3473789,34.8484848 17.7521566,33.5497835 C19.1569343,32.2510823 19.8593232,30.7359307 19.8593232,29.004329 C19.8593232,27.1957672 19.2146649,25.5363155 17.9253484,24.025974 C16.6360319,22.5156325 14.5192435,21.7316017 11.5749834,21.6738817 L11.5749834,17.1139971 C13.8264764,17.0755171 15.5920703,16.5223665 16.8717651,15.4545455 C18.1514599,14.3867244 18.7913072,13.015873 18.7913072,11.3419913 C18.7913072,9.62962963 18.1947578,8.17700818 17.0016589,6.98412698 C15.8085601,5.79124579 14.3556735,5.19480519 12.6429993,5.19480519 C11.0265428,5.19480519 9.73722628,5.5988456 8.77504977,6.40692641 C7.81287326,7.21500722 7.03351029,8.5040885 6.43696085,10.2741703 Z" id="3"></path>
                            <path d="M32.4734572,35.3823954 C32.4734572,34.3241943 32.8535169,33.4102934 33.6136364,32.6406926 C34.3737558,31.8710919 35.2926344,31.4862915 36.3702721,31.4862915 C37.4286662,31.4862915 38.3427339,31.8710919 39.1124751,32.6406926 C39.8822163,33.4102934 40.2670869,34.3241943 40.2670869,35.3823954 C40.2670869,36.4598365 39.8870272,37.3785474 39.1269078,38.1385281 C38.3667883,38.8985089 37.4479098,39.2784993 36.3702721,39.2784993 C35.2926344,39.2784993 34.3737558,38.9033189 33.6136364,38.1529582 C32.8535169,37.4025974 32.4734572,36.4790765 32.4734572,35.3823954 Z" id="."></path>
                            <path d="M62.3201725,0 L66.1592568,2.65512266 L58.0769741,14.4588745 C58.7504977,14.3819144 59.2219642,14.3434343 59.4913736,14.3434343 L60.5593895,14.2857143 C63.9847379,14.2857143 66.9963504,15.5074555 69.5942269,17.950938 C72.1921035,20.3944204 73.4910418,23.2130832 73.4910418,26.4069264 C73.4910418,30.1972102 72.2017253,33.4102934 69.6230922,36.046176 C67.0444592,38.6820587 63.898142,40 60.1841407,40 C56.4701393,40 53.2949569,38.7061087 50.6585932,36.1183261 C48.0222296,33.5305435 46.7040478,30.4088504 46.7040478,26.7532468 C46.7040478,23.9442039 47.5315196,21.3468013 49.1864632,18.961039 L62.3201725,0 Z M68.2375581,26.5800866 C68.2375581,24.3482443 67.4341407,22.4194324 65.8273059,20.7936508 C64.2204711,19.1678692 62.3201725,18.3549784 60.1264101,18.3549784 C57.9326476,18.3549784 56.0179164,19.1774892 54.3822163,20.8225108 C52.7465163,22.4675325 51.9286662,24.3867244 51.9286662,26.5800866 C51.9286662,28.8504089 52.7224618,30.7696008 54.3100531,32.3376623 C55.8976443,33.9057239 57.83643,34.6897547 60.1264101,34.6897547 C62.3779031,34.6897547 64.2926344,33.9009139 65.8706038,32.3232323 C67.4485733,30.7455507 68.2375581,28.8311688 68.2375581,26.5800866 Z" id="6"></path>
                        </g>
                    </g>
                </g>
            </g>
        </g>
    </g>
</svg>