<?xml version="1.0" encoding="UTF-8"?>
<svg width="84px" height="40px" viewBox="0 0 84 40" version="1.1" xmlns="http://www.w3.org/2000/svg" xmlns:xlink="http://www.w3.org/1999/xlink">
    <!-- Generator: Sketch 61 (89581) - https://sketch.com -->
    <title>figure</title>
    <desc>Created with Sketch.</desc>
    <g id="en" stroke="none" stroke-width="1" fill="none" fill-rule="evenodd">
        <g id="X2D-webpage_en" transform="translate(-1085.000000, -1922.000000)">
            <g id="Section-1---首屏">
                <g id="div">
                    <g transform="translate(680.000000, 320.000000)" id="ul">
                        <g transform="translate(0.000000, 1602.000000)">
                            <g id="li" transform="translate(304.000000, 0.000000)">
                                <g id="figure">
                                    <rect id="div" x="0" y="0" width="287" height="40"></rect>
                                    <g id="img" transform="translate(101.000000, 0.000000)" fill="#FFFFFF" fill-rule="nonzero">
                                        <path d="M70.9572901,0 C72.9995091,0 75.0711831,0.441826215 77.1723122,1.32547865 C79.2734413,2.20913108 81.0211095,3.55424644 82.4153166,5.36082474 L78.2621502,8.6892489 C77.1624939,7.5503191 76.1659303,6.70103093 75.2724595,6.14138439 C74.3789887,5.58173785 73.0878743,5.30191458 71.3991163,5.30191458 C69.5532646,5.30191458 68.0559647,5.71919489 66.9072165,6.55375552 C65.7584683,7.38831615 65.1840943,8.46342661 65.1840943,9.77908689 C65.1840943,10.9180167 65.6848306,11.9243986 66.6863034,12.7982327 C67.6877761,13.6720668 69.3961708,14.6244477 71.8114875,15.6553756 C74.2268041,16.6863034 76.1070201,17.6485027 77.4521355,18.5419735 C78.7972509,19.4354443 79.9018164,20.4221895 80.7658321,21.5022091 C81.6298478,22.5822288 82.2729504,23.7211586 82.6951399,24.9189985 C83.1173294,26.1168385 83.3284242,27.383407 83.3284242,28.718704 C83.3284242,31.8409426 82.1944035,34.5017182 79.9263623,36.7010309 C77.6583211,38.9003436 74.9140893,40 71.6936672,40 C68.5517919,40 65.7781051,39.1408935 63.3726068,37.4226804 C60.9671085,35.7044674 59.1163476,33.1271478 57.820324,29.6907216 L62.9455081,28.2474227 C64.8109966,32.4693176 67.6681394,34.5802651 71.5169367,34.5802651 C73.3824251,34.5802651 74.9337261,34.0206186 76.1708395,32.9013255 C77.4079529,31.7820324 78.0265096,30.3681885 78.0265096,28.6597938 C78.0265096,27.6386843 77.7025037,26.6126657 77.0544919,25.5817378 C76.4064801,24.55081 75.6013746,23.7015218 74.6391753,23.0338733 C73.6769759,22.3662248 72.1404026,21.6053019 70.0294551,20.7511046 C67.9185076,19.8969072 66.2984782,19.1114384 65.1693667,18.3946981 C64.0402553,17.6779578 63.0633284,16.8237604 62.2385862,15.832106 C61.4138439,14.8404516 60.8100147,13.8537064 60.4270987,12.8718704 C60.0441826,11.8900344 59.8527246,10.8394698 59.8527246,9.72017673 C59.8527246,7.029946 60.9327442,4.73735886 63.0927835,2.84241532 C65.2528228,0.947471772 67.874325,0 70.9572901,0 Z M5.06627393,1.20765832 L5.06627393,38.7334315 L0,38.7334315 L0,1.20765832 L5.06627393,1.20765832 Z M20.9131075,1.20765832 C24.8208149,1.20765832 28.011782,2.05694649 30.4860088,3.75552283 C32.9602356,5.45409917 34.197349,7.5994109 34.197349,10.191458 C34.197349,13.3529701 32.371134,15.994109 28.718704,18.1148748 C34.3740795,20 37.2017673,23.269514 37.2017673,27.9234168 C37.2017673,31.1634757 35.7437408,33.7751595 32.8276878,35.7584683 C29.9116348,37.7417771 26.0088365,38.7334315 21.1192931,38.7334315 L14.9631811,38.7334315 L14.9631811,1.20765832 L20.9131075,1.20765832 Z M50.3387334,1.20765832 L50.3387334,38.7334315 L45.2724595,38.7334315 L45.2724595,1.20765832 L50.3387334,1.20765832 Z M21.7673049,21.2960236 L20.0294551,21.2960236 L20.0294551,34.1384389 L20.4418262,34.1384389 C24.8600884,34.1384389 27.874325,33.4315169 29.4845361,32.017673 C31.0947472,30.6038292 31.8998527,29.1605302 31.8998527,27.6877761 C31.8998527,25.7437408 30.9965636,24.1924399 29.1899853,23.0338733 C27.383407,21.8753068 24.9091802,21.2960236 21.7673049,21.2960236 Z M21.2960236,5.68483063 C20.8051055,5.68483063 20.3829161,5.70446735 20.0294551,5.7437408 L20.0294551,16.8483063 C22.8571429,16.8090329 25.0220913,16.2690231 26.5243004,15.2282769 C28.0265096,14.1875307 28.7776141,12.7540501 28.7776141,10.9278351 C28.7776141,9.33726068 28.1001473,8.06578301 26.7452135,7.11340206 C25.3902798,6.16102111 23.5738832,5.68483063 21.2960236,5.68483063 Z"></path>
                                    </g>
                                </g>
                            </g>
                        </g>
                    </g>
                </g>
            </g>
        </g>
    </g>
</svg>