<?xml version="1.0" encoding="UTF-8"?>
<svg width="126px" height="40px" viewBox="0 0 126 40" version="1.1" xmlns="http://www.w3.org/2000/svg" xmlns:xlink="http://www.w3.org/1999/xlink">
    <!-- Generator: Sketch 61 (89581) - https://sketch.com -->
    <title>figure</title>
    <desc>Created with Sketch.</desc>
    <g id="en" stroke="none" stroke-width="1" fill="none" fill-rule="evenodd">
        <g id="X2D-webpage_en" transform="translate(-1367.000000, -1922.000000)">
            <g id="Section-1---首屏">
                <g id="div">
                    <g transform="translate(680.000000, 320.000000)" id="ul">
                        <g transform="translate(0.000000, 1602.000000)">
                            <g id="li" transform="translate(608.000000, 0.000000)">
                                <g id="figure">
                                    <rect id="div" x="0" y="0" width="287" height="40"></rect>
                                    <g id="img" transform="translate(79.000000, 0.000000)" fill="#FFFFFF" fill-rule="nonzero">
                                        <path d="M0,1.48148148 L7.73998488,1.48148148 C12.1138826,1.48148148 15.6412195,2.50944822 18.3219955,4.56538171 C21.0027715,6.62131519 22.3431595,9.2920131 22.3431595,12.5774754 C22.3431595,15.883094 20.9271857,18.6545729 18.0952381,20.8919123 C15.2632905,23.1292517 10.9649786,24.2176871 5.20030234,24.1572184 L5.20030234,40 L0,40 L0,1.48148148 Z M5.20030234,6.07709751 L5.20030234,19.5616024 C9.15091963,19.52129 12.0786092,18.9619552 13.9833711,17.8835979 C15.888133,16.8052406 16.840514,15.0768456 16.840514,12.6984127 C16.840514,10.90451 16.1199295,9.35248173 14.6787604,8.04232804 C13.2375913,6.73217435 10.0781053,6.07709751 5.20030234,6.07709751 Z" id="P"></path>
                                        <path d="M29.7808012,1.48148148 L39.1232048,1.48148148 C46.5205341,1.48148148 52.0231796,3.43663391 55.6311413,7.34693878 C59.239103,11.2572436 61.0430839,15.7218443 61.0430839,20.7407407 C61.0430839,25.7999496 59.1786344,30.2746284 55.4497354,34.164777 C51.7208365,38.0549257 46.2988158,40 39.1836735,40 L29.7808012,40 L29.7808012,1.48148148 Z M35.0415722,6.62131519 L35.0415722,34.7996977 L35.3439153,34.7996977 C39.2542202,34.7996977 42.197027,34.6233308 44.1723356,34.2705971 C46.1476442,33.9178634 48.0221718,33.1468884 49.7959184,31.957672 C51.5696649,30.7684555 52.9805996,29.191232 54.0287226,27.2260015 C55.0768456,25.260771 55.600907,23.0990174 55.600907,20.7407407 C55.600907,17.7777778 54.7644243,15.0970018 53.0914588,12.6984127 C51.4184933,10.2998236 49.4179894,8.68732678 47.0899471,7.86092215 C44.7619048,7.03451751 41.6326531,6.62131519 37.702192,6.62131519 L35.0415722,6.62131519 Z" id="D"></path>
                                        <path d="M81.4814815,0 L99.6825397,40 L94.1798942,40 L89.6749811,30.143613 L73.3182162,30.143613 L68.9342404,40 L63.4618292,40 L81.4814815,0 Z M81.4814815,12.0634921 L75.2834467,25.7596372 L87.6795163,25.7596372 L81.4814815,12.0634921 Z" id="A"></path>
                                        <polygon id="F" points="104.09675 1.48148148 125.442177 1.48148148 125.442177 6.74225246 109.297052 6.74225246 109.297052 16.3567649 125.442177 16.3567649 125.442177 21.5570673 109.357521 21.5570673 109.357521 40 104.09675 40"></polygon>
                                    </g>
                                </g>
                            </g>
                        </g>
                    </g>
                </g>
            </g>
        </g>
    </g>
</svg>