<svg width="19" height="18" viewBox="0 0 19 18" fill="none" xmlns="http://www.w3.org/2000/svg">
<g clip-path="url(#clip0_60_387)">
<path d="M17.8438 9C17.8438 4.18359 13.9414 0.28125 9.125 0.28125C4.30859 0.28125 0.40625 4.18359 0.40625 9C0.40625 13.3516 3.59457 16.9587 7.7627 17.6133V11.5204H5.54785V9H7.7627V7.07906C7.7627 4.8941 9.06348 3.68719 11.0558 3.68719C12.0099 3.68719 13.0077 3.85734 13.0077 3.85734V6.00188H11.908C10.8252 6.00188 10.4873 6.67406 10.4873 7.36348V9H12.9054L12.5186 11.5204H10.4873V17.6133C14.6554 16.9587 17.8438 13.3516 17.8438 9Z" fill="white"/>
</g>
<defs>
<clipPath id="clip0_60_387">
<rect width="18" height="18" fill="white" transform="translate(0.125)"/>
</clipPath>
</defs>
</svg>
