<svg width="17" height="18" viewBox="0 0 17 18" fill="none" xmlns="http://www.w3.org/2000/svg">
<g clip-path="url(#clip0_60_393)">
<path d="M4.40047 15.7501H1.13516V5.2349H4.40047V15.7501ZM2.76605 3.80053C1.72191 3.80053 0.875 2.93568 0.875 1.89154C0.875 1.39 1.07424 0.909007 1.42888 0.554365C1.78352 0.199724 2.26452 0.000488281 2.76605 0.000488281C3.26759 0.000488281 3.74859 0.199724 4.10323 0.554365C4.45787 0.909007 4.65711 1.39 4.65711 1.89154C4.65711 2.93568 3.80984 3.80053 2.76605 3.80053ZM16.6215 15.7501H13.3632V10.6314C13.3632 9.41146 13.3386 7.84701 11.6655 7.84701C9.96781 7.84701 9.70766 9.1724 9.70766 10.5435V15.7501H6.44586V5.2349H9.57758V6.66928H9.62328C10.0592 5.84311 11.1241 4.97123 12.7128 4.97123C16.0175 4.97123 16.625 7.1474 16.625 9.97396V15.7501H16.6215Z" fill="white"/>
</g>
<defs>
<clipPath id="clip0_60_393">
<rect width="15.75" height="18" fill="white" transform="translate(0.875)"/>
</clipPath>
</defs>
</svg>
