<svg width="21" height="18" viewBox="0 0 21 18" fill="none" xmlns="http://www.w3.org/2000/svg">
<g clip-path="url(#clip0_60_395)">
<path d="M19.9487 4.36229C19.7279 3.53085 19.0773 2.87603 18.2512 2.6538C16.7539 2.25 10.7499 2.25 10.7499 2.25C10.7499 2.25 4.74593 2.25 3.24859 2.6538C2.42252 2.87606 1.77192 3.53085 1.55111 4.36229C1.1499 5.86934 1.1499 9.01364 1.1499 9.01364C1.1499 9.01364 1.1499 12.1579 1.55111 13.665C1.77192 14.4964 2.42252 15.124 3.24859 15.3462C4.74593 15.75 10.7499 15.75 10.7499 15.75C10.7499 15.75 16.7539 15.75 18.2512 15.3462C19.0773 15.124 19.7279 14.4964 19.9487 13.665C20.3499 12.1579 20.3499 9.01364 20.3499 9.01364C20.3499 9.01364 20.3499 5.86934 19.9487 4.36229ZM8.78626 11.8684V6.15885L13.8044 9.01371L8.78626 11.8684Z" fill="white"/>
</g>
<defs>
<clipPath id="clip0_60_395">
<rect width="20.25" height="18" fill="white" transform="translate(0.625)"/>
</clipPath>
</defs>
</svg>
