<svg width="16" height="18" viewBox="0 0 16 18" fill="none" xmlns="http://www.w3.org/2000/svg">
<g clip-path="url(#clip0_60_391)">
<path d="M8.00347 4.95684C5.76753 4.95684 3.96401 6.76035 3.96401 8.99629C3.96401 11.2322 5.76753 13.0357 8.00347 13.0357C10.2394 13.0357 12.0429 11.2322 12.0429 8.99629C12.0429 6.76035 10.2394 4.95684 8.00347 4.95684ZM8.00347 11.6225C6.55855 11.6225 5.37729 10.4447 5.37729 8.99629C5.37729 7.54785 6.55503 6.37012 8.00347 6.37012C9.4519 6.37012 10.6296 7.54785 10.6296 8.99629C10.6296 10.4447 9.44839 11.6225 8.00347 11.6225ZM13.1503 4.7916C13.1503 5.31543 12.7285 5.73379 12.2082 5.73379C11.6843 5.73379 11.266 5.31191 11.266 4.7916C11.266 4.27129 11.6878 3.84941 12.2082 3.84941C12.7285 3.84941 13.1503 4.27129 13.1503 4.7916ZM15.8257 5.74785C15.766 4.48574 15.4777 3.36777 14.5531 2.44668C13.632 1.52559 12.514 1.2373 11.2519 1.17402C9.95112 1.1002 6.0523 1.1002 4.75151 1.17402C3.49292 1.23379 2.37495 1.52207 1.45034 2.44316C0.525733 3.36426 0.240967 4.48223 0.177686 5.74434C0.103857 7.04512 0.103857 10.9439 0.177686 12.2447C0.237451 13.5068 0.525733 14.6248 1.45034 15.5459C2.37495 16.467 3.4894 16.7553 4.75151 16.8186C6.0523 16.8924 9.95112 16.8924 11.2519 16.8186C12.514 16.7588 13.632 16.4705 14.5531 15.5459C15.4742 14.6248 15.7625 13.5068 15.8257 12.2447C15.8996 10.9439 15.8996 7.04863 15.8257 5.74785ZM14.1453 13.6404C13.871 14.3295 13.3402 14.8604 12.6476 15.1381C11.6105 15.5494 9.14956 15.4545 8.00347 15.4545C6.85737 15.4545 4.39292 15.5459 3.35933 15.1381C2.67026 14.8639 2.1394 14.333 1.86167 13.6404C1.45034 12.6033 1.54526 10.1424 1.54526 8.99629C1.54526 7.8502 1.45386 5.38574 1.86167 4.35215C2.13589 3.66309 2.66675 3.13223 3.35933 2.85449C4.39644 2.44316 6.85737 2.53809 8.00347 2.53809C9.14956 2.53809 11.614 2.44668 12.6476 2.85449C13.3367 3.12871 13.8675 3.65957 14.1453 4.35215C14.5566 5.38926 14.4617 7.8502 14.4617 8.99629C14.4617 10.1424 14.5566 12.6068 14.1453 13.6404Z" fill="white"/>
</g>
<defs>
<clipPath id="clip0_60_391">
<rect width="15.75" height="18" fill="white" transform="translate(0.125)"/>
</clipPath>
</defs>
</svg>
